<mxfile host="app.diagrams.net" modified="2024-04-24T15:45:27.984Z" agent="Mozilla/5.0 (Macintosh; Intel Mac OS X 10.15; rv:124.0) Gecko/20100101 Firefox/124.0" etag="-j4QFoGPL_66oVsE5N3I" version="24.2.7" type="device">
  <diagram name="Page-1" id="LF_2rNGQ-S5pT4Akx08O">
    <mxGraphModel dx="820" dy="550" grid="1" gridSize="10" guides="1" tooltips="1" connect="1" arrows="1" fold="1" page="1" pageScale="1" pageWidth="850" pageHeight="1100" math="0" shadow="0">
      <root>
        <mxCell id="0" />
        <mxCell id="1" parent="0" />
        <mxCell id="1Sk6vO07SzEdyo9DuMJm-114" value="" style="rounded=0;whiteSpace=wrap;html=1;labelBackgroundColor=none;fontColor=default;labelBorderColor=none;textOpacity=50;fillColor=#00FF00;strokeColor=none;opacity=50;direction=east;" vertex="1" parent="1">
          <mxGeometry y="840" width="480" height="130" as="geometry" />
        </mxCell>
        <mxCell id="1Sk6vO07SzEdyo9DuMJm-86" value="" style="rounded=0;whiteSpace=wrap;html=1;labelBackgroundColor=none;fontColor=default;labelBorderColor=none;textOpacity=50;fillColor=#0000FF;strokeColor=none;opacity=50;direction=east;" vertex="1" parent="1">
          <mxGeometry y="550" width="480" height="270" as="geometry" />
        </mxCell>
        <mxCell id="1Sk6vO07SzEdyo9DuMJm-84" value="" style="rounded=0;whiteSpace=wrap;html=1;labelBackgroundColor=none;fontColor=default;labelBorderColor=none;textOpacity=50;fillColor=#FF0000;strokeColor=none;opacity=50;" vertex="1" parent="1">
          <mxGeometry y="60" width="480" height="340" as="geometry" />
        </mxCell>
        <mxCell id="1Sk6vO07SzEdyo9DuMJm-14" value="&lt;div style=&quot;line-height: 100%; font-size: 10px;&quot;&gt;&lt;font style=&quot;font-size: 10px;&quot;&gt;k: &amp;lt;category&amp;gt;&lt;br&gt;v: 1&lt;br&gt;&lt;/font&gt;&lt;/div&gt;" style="text;html=1;align=left;verticalAlign=middle;resizable=0;points=[];autosize=1;strokeColor=none;fillColor=none;fontFamily=Courier New;" vertex="1" parent="1">
          <mxGeometry x="50" y="140" width="100" height="30" as="geometry" />
        </mxCell>
        <mxCell id="1Sk6vO07SzEdyo9DuMJm-25" style="edgeStyle=orthogonalEdgeStyle;rounded=0;orthogonalLoop=1;jettySize=auto;html=1;exitX=0.25;exitY=1;exitDx=0;exitDy=0;entryX=0.25;entryY=0;entryDx=0;entryDy=0;endArrow=classic;endFill=1;fontFamily=Courier New;" edge="1" parent="1" source="1Sk6vO07SzEdyo9DuMJm-2" target="1Sk6vO07SzEdyo9DuMJm-8">
          <mxGeometry relative="1" as="geometry">
            <Array as="points">
              <mxPoint x="50" y="160" />
              <mxPoint x="50" y="160" />
            </Array>
          </mxGeometry>
        </mxCell>
        <mxCell id="1Sk6vO07SzEdyo9DuMJm-2" value="mapper: count category" style="rounded=0;whiteSpace=wrap;html=1;fontFamily=Courier New;" vertex="1" parent="1">
          <mxGeometry x="20" y="80" width="120" height="60" as="geometry" />
        </mxCell>
        <mxCell id="1Sk6vO07SzEdyo9DuMJm-24" style="edgeStyle=orthogonalEdgeStyle;rounded=0;orthogonalLoop=1;jettySize=auto;html=1;exitX=0.25;exitY=1;exitDx=0;exitDy=0;endArrow=classic;endFill=1;fontFamily=Courier New;entryX=0.25;entryY=0;entryDx=0;entryDy=0;" edge="1" parent="1" source="1Sk6vO07SzEdyo9DuMJm-3" target="1Sk6vO07SzEdyo9DuMJm-9">
          <mxGeometry relative="1" as="geometry" />
        </mxCell>
        <mxCell id="1Sk6vO07SzEdyo9DuMJm-3" value="mapper: count category" style="rounded=0;whiteSpace=wrap;html=1;fontFamily=Courier New;" vertex="1" parent="1">
          <mxGeometry x="150" y="80" width="120" height="60" as="geometry" />
        </mxCell>
        <mxCell id="1Sk6vO07SzEdyo9DuMJm-26" style="edgeStyle=orthogonalEdgeStyle;rounded=0;orthogonalLoop=1;jettySize=auto;html=1;exitX=0.25;exitY=1;exitDx=0;exitDy=0;entryX=0.25;entryY=0;entryDx=0;entryDy=0;endArrow=classic;endFill=1;fontFamily=Courier New;" edge="1" parent="1" source="1Sk6vO07SzEdyo9DuMJm-5" target="1Sk6vO07SzEdyo9DuMJm-20">
          <mxGeometry relative="1" as="geometry">
            <Array as="points">
              <mxPoint x="370" y="160" />
              <mxPoint x="370" y="160" />
            </Array>
          </mxGeometry>
        </mxCell>
        <mxCell id="1Sk6vO07SzEdyo9DuMJm-5" value="mapper: count category" style="rounded=0;whiteSpace=wrap;html=1;fontFamily=Courier New;" vertex="1" parent="1">
          <mxGeometry x="340" y="80" width="120" height="60" as="geometry" />
        </mxCell>
        <mxCell id="1Sk6vO07SzEdyo9DuMJm-6" value="" style="endArrow=none;dashed=1;html=1;dashPattern=1 3;strokeWidth=5.5;rounded=0;jumpSize=6;fontFamily=Courier New;" edge="1" parent="1">
          <mxGeometry width="50" height="50" relative="1" as="geometry">
            <mxPoint x="280" y="109.80000000000001" as="sourcePoint" />
            <mxPoint x="330" y="110.00999999999999" as="targetPoint" />
          </mxGeometry>
        </mxCell>
        <mxCell id="1Sk6vO07SzEdyo9DuMJm-93" style="edgeStyle=orthogonalEdgeStyle;rounded=0;orthogonalLoop=1;jettySize=auto;html=1;exitX=0.25;exitY=1;exitDx=0;exitDy=0;entryX=0.5;entryY=0;entryDx=0;entryDy=0;" edge="1" parent="1" source="1Sk6vO07SzEdyo9DuMJm-8" target="1Sk6vO07SzEdyo9DuMJm-90">
          <mxGeometry relative="1" as="geometry">
            <Array as="points">
              <mxPoint x="50" y="280" />
              <mxPoint x="210" y="280" />
            </Array>
          </mxGeometry>
        </mxCell>
        <mxCell id="1Sk6vO07SzEdyo9DuMJm-8" value="combinder: count category" style="rounded=0;whiteSpace=wrap;html=1;fontFamily=Courier New;" vertex="1" parent="1">
          <mxGeometry x="20" y="190" width="120" height="60" as="geometry" />
        </mxCell>
        <mxCell id="1Sk6vO07SzEdyo9DuMJm-28" style="edgeStyle=orthogonalEdgeStyle;rounded=0;orthogonalLoop=1;jettySize=auto;html=1;exitX=0.25;exitY=1;exitDx=0;exitDy=0;endArrow=classic;endFill=1;fontFamily=Courier New;entryX=0.5;entryY=0;entryDx=0;entryDy=0;" edge="1" parent="1" source="1Sk6vO07SzEdyo9DuMJm-9" target="1Sk6vO07SzEdyo9DuMJm-91">
          <mxGeometry relative="1" as="geometry">
            <mxPoint x="240" y="300" as="targetPoint" />
            <Array as="points">
              <mxPoint x="180" y="280" />
              <mxPoint x="400" y="280" />
            </Array>
          </mxGeometry>
        </mxCell>
        <mxCell id="1Sk6vO07SzEdyo9DuMJm-9" value="combinder: count category" style="rounded=0;whiteSpace=wrap;html=1;fontFamily=Courier New;" vertex="1" parent="1">
          <mxGeometry x="150" y="190" width="120" height="60" as="geometry" />
        </mxCell>
        <mxCell id="1Sk6vO07SzEdyo9DuMJm-33" style="edgeStyle=orthogonalEdgeStyle;rounded=0;orthogonalLoop=1;jettySize=auto;html=1;exitX=0.25;exitY=1;exitDx=0;exitDy=0;entryX=0.794;entryY=0.008;entryDx=0;entryDy=0;entryPerimeter=0;fontFamily=Courier New;" edge="1" parent="1" source="1Sk6vO07SzEdyo9DuMJm-10" target="1Sk6vO07SzEdyo9DuMJm-54">
          <mxGeometry relative="1" as="geometry">
            <mxPoint x="280" y="560" as="targetPoint" />
            <mxPoint x="255.0000000000001" y="360" as="sourcePoint" />
            <Array as="points">
              <mxPoint x="50" y="390" />
              <mxPoint x="240" y="390" />
              <mxPoint x="240" y="420" />
              <mxPoint x="490" y="420" />
              <mxPoint x="490" y="690" />
              <mxPoint x="115" y="690" />
            </Array>
          </mxGeometry>
        </mxCell>
        <mxCell id="1Sk6vO07SzEdyo9DuMJm-10" value="combinder: count category" style="rounded=0;whiteSpace=wrap;html=1;fontFamily=Courier New;" vertex="1" parent="1">
          <mxGeometry x="20" y="300" width="120" height="60" as="geometry" />
        </mxCell>
        <mxCell id="1Sk6vO07SzEdyo9DuMJm-15" value="&lt;div style=&quot;line-height: 100%; font-size: 10px;&quot;&gt;&lt;font style=&quot;font-size: 10px;&quot;&gt;k: &amp;lt;category&amp;gt;&lt;br&gt;v: 1&lt;br&gt;&lt;/font&gt;&lt;/div&gt;" style="text;html=1;align=left;verticalAlign=middle;resizable=0;points=[];autosize=1;strokeColor=none;fillColor=none;fontFamily=Courier New;" vertex="1" parent="1">
          <mxGeometry x="180" y="140" width="100" height="30" as="geometry" />
        </mxCell>
        <mxCell id="1Sk6vO07SzEdyo9DuMJm-17" value="&lt;div style=&quot;line-height: 100%; font-size: 10px;&quot;&gt;&lt;font style=&quot;font-size: 10px;&quot;&gt;k: &amp;lt;category&amp;gt;&lt;br&gt;v: 1&lt;br&gt;&lt;/font&gt;&lt;/div&gt;" style="text;html=1;align=left;verticalAlign=middle;resizable=0;points=[];autosize=1;strokeColor=none;fillColor=none;fontFamily=Courier New;" vertex="1" parent="1">
          <mxGeometry x="370" y="140" width="100" height="30" as="geometry" />
        </mxCell>
        <mxCell id="1Sk6vO07SzEdyo9DuMJm-92" style="edgeStyle=orthogonalEdgeStyle;rounded=0;orthogonalLoop=1;jettySize=auto;html=1;exitX=0.25;exitY=1;exitDx=0;exitDy=0;entryX=0.5;entryY=0;entryDx=0;entryDy=0;" edge="1" parent="1" source="1Sk6vO07SzEdyo9DuMJm-20" target="1Sk6vO07SzEdyo9DuMJm-10">
          <mxGeometry relative="1" as="geometry">
            <Array as="points">
              <mxPoint x="370" y="280" />
              <mxPoint x="80" y="280" />
            </Array>
          </mxGeometry>
        </mxCell>
        <mxCell id="1Sk6vO07SzEdyo9DuMJm-20" value="combinder: count category" style="rounded=0;whiteSpace=wrap;html=1;fontFamily=Courier New;" vertex="1" parent="1">
          <mxGeometry x="340" y="190" width="120" height="60" as="geometry" />
        </mxCell>
        <mxCell id="1Sk6vO07SzEdyo9DuMJm-23" value="" style="endArrow=none;dashed=1;html=1;dashPattern=1 3;strokeWidth=5.5;rounded=0;jumpSize=6;fontFamily=Courier New;" edge="1" parent="1">
          <mxGeometry width="50" height="50" relative="1" as="geometry">
            <mxPoint x="280" y="219.62" as="sourcePoint" />
            <mxPoint x="330" y="219.82999999999998" as="targetPoint" />
          </mxGeometry>
        </mxCell>
        <mxCell id="1Sk6vO07SzEdyo9DuMJm-30" value="&lt;div align=&quot;left&quot; style=&quot;line-height: 100%; font-size: 10px; padding-left: 0px;&quot;&gt;&lt;font style=&quot;font-size: 10px;&quot;&gt;k: &amp;lt;category&amp;gt;&lt;br&gt;v: sum&lt;br&gt;&lt;/font&gt;&lt;/div&gt;" style="text;html=1;align=left;verticalAlign=middle;resizable=0;points=[];autosize=1;strokeColor=none;fillColor=none;fontFamily=Courier New;" vertex="1" parent="1">
          <mxGeometry x="50" y="250" width="100" height="30" as="geometry" />
        </mxCell>
        <mxCell id="1Sk6vO07SzEdyo9DuMJm-31" value="&lt;div style=&quot;line-height: 100%; font-size: 10px;&quot;&gt;&lt;font style=&quot;font-size: 10px;&quot;&gt;k: &amp;lt;category&amp;gt;&lt;br&gt;v: sum&lt;br&gt;&lt;/font&gt;&lt;/div&gt;" style="text;html=1;align=left;verticalAlign=middle;resizable=0;points=[];autosize=1;strokeColor=none;fillColor=none;fontFamily=Courier New;" vertex="1" parent="1">
          <mxGeometry x="180" y="250" width="100" height="30" as="geometry" />
        </mxCell>
        <mxCell id="1Sk6vO07SzEdyo9DuMJm-32" value="&lt;div style=&quot;line-height: 100%; font-size: 10px;&quot;&gt;&lt;font style=&quot;font-size: 10px;&quot;&gt;k: &amp;lt;category&amp;gt;&lt;br&gt;v: sum&lt;br&gt;&lt;/font&gt;&lt;/div&gt;" style="text;html=1;align=left;verticalAlign=middle;resizable=0;points=[];autosize=1;strokeColor=none;fillColor=none;fontFamily=Courier New;" vertex="1" parent="1">
          <mxGeometry x="370" y="250" width="100" height="30" as="geometry" />
        </mxCell>
        <mxCell id="1Sk6vO07SzEdyo9DuMJm-34" value="&lt;div style=&quot;line-height: 100%; font-size: 10px;&quot;&gt;&lt;font style=&quot;font-size: 10px;&quot;&gt;k: &amp;lt;category&amp;gt;&lt;br&gt;v: sum&lt;br&gt;&lt;/font&gt;&lt;/div&gt;" style="text;html=1;align=left;verticalAlign=middle;resizable=0;points=[];autosize=1;strokeColor=none;fillColor=none;fontFamily=Courier New;" vertex="1" parent="1">
          <mxGeometry x="180" y="360" width="100" height="30" as="geometry" />
        </mxCell>
        <mxCell id="1Sk6vO07SzEdyo9DuMJm-36" style="edgeStyle=orthogonalEdgeStyle;rounded=0;orthogonalLoop=1;jettySize=auto;html=1;exitX=0.5;exitY=1;exitDx=0;exitDy=0;exitPerimeter=0;entryX=0.5;entryY=0;entryDx=0;entryDy=0;fontFamily=Courier New;" edge="1" parent="1" source="1Sk6vO07SzEdyo9DuMJm-35" target="1Sk6vO07SzEdyo9DuMJm-2">
          <mxGeometry relative="1" as="geometry" />
        </mxCell>
        <mxCell id="1Sk6vO07SzEdyo9DuMJm-35" value="corpus" style="shape=note;size=20;whiteSpace=wrap;html=1;fontFamily=Courier New;" vertex="1" parent="1">
          <mxGeometry x="30" y="10" width="100" height="40" as="geometry" />
        </mxCell>
        <mxCell id="1Sk6vO07SzEdyo9DuMJm-38" style="edgeStyle=orthogonalEdgeStyle;rounded=0;orthogonalLoop=1;jettySize=auto;html=1;exitX=0.5;exitY=1;exitDx=0;exitDy=0;exitPerimeter=0;entryX=0.5;entryY=0;entryDx=0;entryDy=0;fontFamily=Courier New;" edge="1" parent="1" source="1Sk6vO07SzEdyo9DuMJm-37" target="1Sk6vO07SzEdyo9DuMJm-3">
          <mxGeometry relative="1" as="geometry" />
        </mxCell>
        <mxCell id="1Sk6vO07SzEdyo9DuMJm-37" value="corpus" style="shape=note;size=20;whiteSpace=wrap;html=1;fontFamily=Courier New;" vertex="1" parent="1">
          <mxGeometry x="160" y="10" width="100" height="40" as="geometry" />
        </mxCell>
        <mxCell id="1Sk6vO07SzEdyo9DuMJm-40" style="edgeStyle=orthogonalEdgeStyle;rounded=0;orthogonalLoop=1;jettySize=auto;html=1;exitX=0.5;exitY=1;exitDx=0;exitDy=0;exitPerimeter=0;entryX=0.5;entryY=0;entryDx=0;entryDy=0;fontFamily=Courier New;" edge="1" parent="1" source="1Sk6vO07SzEdyo9DuMJm-39" target="1Sk6vO07SzEdyo9DuMJm-5">
          <mxGeometry relative="1" as="geometry" />
        </mxCell>
        <mxCell id="1Sk6vO07SzEdyo9DuMJm-39" value="corpus" style="shape=note;size=20;whiteSpace=wrap;html=1;fontFamily=Courier New;" vertex="1" parent="1">
          <mxGeometry x="350" y="10" width="100" height="40" as="geometry" />
        </mxCell>
        <mxCell id="1Sk6vO07SzEdyo9DuMJm-72" style="edgeStyle=orthogonalEdgeStyle;rounded=0;orthogonalLoop=1;jettySize=auto;html=1;exitX=0.25;exitY=1;exitDx=0;exitDy=0;fontFamily=Courier New;entryX=0.5;entryY=0;entryDx=0;entryDy=0;" edge="1" parent="1" source="1Sk6vO07SzEdyo9DuMJm-43" target="1Sk6vO07SzEdyo9DuMJm-96">
          <mxGeometry relative="1" as="geometry">
            <mxPoint x="660" y="670" as="targetPoint" />
            <Array as="points">
              <mxPoint x="50" y="680" />
              <mxPoint x="210" y="680" />
            </Array>
          </mxGeometry>
        </mxCell>
        <mxCell id="1Sk6vO07SzEdyo9DuMJm-43" value="mapper:count category per term" style="rounded=0;whiteSpace=wrap;html=1;fontFamily=Courier New;" vertex="1" parent="1">
          <mxGeometry x="20" y="570" width="120" height="60" as="geometry" />
        </mxCell>
        <mxCell id="1Sk6vO07SzEdyo9DuMJm-73" style="edgeStyle=orthogonalEdgeStyle;rounded=0;orthogonalLoop=1;jettySize=auto;html=1;exitX=0.25;exitY=1;exitDx=0;exitDy=0;fontFamily=Courier New;entryX=0.5;entryY=0;entryDx=0;entryDy=0;" edge="1" parent="1" source="1Sk6vO07SzEdyo9DuMJm-45" target="1Sk6vO07SzEdyo9DuMJm-97">
          <mxGeometry relative="1" as="geometry">
            <mxPoint x="620" y="630" as="targetPoint" />
            <Array as="points">
              <mxPoint x="180" y="680" />
              <mxPoint x="400" y="680" />
            </Array>
          </mxGeometry>
        </mxCell>
        <mxCell id="1Sk6vO07SzEdyo9DuMJm-45" value="mapper:count category per term" style="rounded=0;whiteSpace=wrap;html=1;fontFamily=Courier New;" vertex="1" parent="1">
          <mxGeometry x="150" y="570" width="120" height="60" as="geometry" />
        </mxCell>
        <mxCell id="1Sk6vO07SzEdyo9DuMJm-74" style="edgeStyle=orthogonalEdgeStyle;rounded=0;orthogonalLoop=1;jettySize=auto;html=1;exitX=0.25;exitY=1;exitDx=0;exitDy=0;entryX=0.5;entryY=0;entryDx=0;entryDy=0;fontFamily=Courier New;" edge="1" parent="1" source="1Sk6vO07SzEdyo9DuMJm-47" target="1Sk6vO07SzEdyo9DuMJm-54">
          <mxGeometry relative="1" as="geometry">
            <Array as="points">
              <mxPoint x="370" y="680" />
              <mxPoint x="80" y="680" />
            </Array>
          </mxGeometry>
        </mxCell>
        <mxCell id="1Sk6vO07SzEdyo9DuMJm-47" value="mapper:count category per term" style="rounded=0;whiteSpace=wrap;html=1;fontFamily=Courier New;" vertex="1" parent="1">
          <mxGeometry x="340" y="570" width="120" height="60" as="geometry" />
        </mxCell>
        <mxCell id="1Sk6vO07SzEdyo9DuMJm-48" value="" style="endArrow=none;dashed=1;html=1;dashPattern=1 3;strokeWidth=5.5;rounded=0;jumpSize=6;fontFamily=Courier New;" edge="1" parent="1">
          <mxGeometry width="50" height="50" relative="1" as="geometry">
            <mxPoint x="280" y="599.8" as="sourcePoint" />
            <mxPoint x="330" y="600.01" as="targetPoint" />
          </mxGeometry>
        </mxCell>
        <mxCell id="1Sk6vO07SzEdyo9DuMJm-83" style="edgeStyle=orthogonalEdgeStyle;rounded=0;orthogonalLoop=1;jettySize=auto;html=1;exitX=0.25;exitY=1;exitDx=0;exitDy=0;entryX=0.5;entryY=0;entryDx=0;entryDy=0;" edge="1" parent="1" source="1Sk6vO07SzEdyo9DuMJm-54" target="1Sk6vO07SzEdyo9DuMJm-113">
          <mxGeometry relative="1" as="geometry">
            <Array as="points">
              <mxPoint x="50" y="810" />
              <mxPoint x="240" y="810" />
              <mxPoint x="240" y="830" />
              <mxPoint x="400" y="830" />
            </Array>
          </mxGeometry>
        </mxCell>
        <mxCell id="1Sk6vO07SzEdyo9DuMJm-54" value="reducer: calculate chi-squared" style="rounded=0;whiteSpace=wrap;html=1;fontFamily=Courier New;" vertex="1" parent="1">
          <mxGeometry x="20" y="710" width="120" height="60" as="geometry" />
        </mxCell>
        <mxCell id="1Sk6vO07SzEdyo9DuMJm-65" style="edgeStyle=orthogonalEdgeStyle;rounded=0;orthogonalLoop=1;jettySize=auto;html=1;exitX=0.5;exitY=1;exitDx=0;exitDy=0;exitPerimeter=0;entryX=0.25;entryY=0;entryDx=0;entryDy=0;fontFamily=Courier New;" edge="1" parent="1" source="1Sk6vO07SzEdyo9DuMJm-64" target="1Sk6vO07SzEdyo9DuMJm-43">
          <mxGeometry relative="1" as="geometry">
            <Array as="points">
              <mxPoint x="80" y="540" />
              <mxPoint x="50" y="540" />
            </Array>
          </mxGeometry>
        </mxCell>
        <mxCell id="1Sk6vO07SzEdyo9DuMJm-64" value="corpus" style="shape=note;size=20;whiteSpace=wrap;html=1;fontFamily=Courier New;" vertex="1" parent="1">
          <mxGeometry x="30" y="490" width="100" height="40" as="geometry" />
        </mxCell>
        <mxCell id="1Sk6vO07SzEdyo9DuMJm-85" style="edgeStyle=orthogonalEdgeStyle;rounded=0;orthogonalLoop=1;jettySize=auto;html=1;exitX=0.5;exitY=1;exitDx=0;exitDy=0;exitPerimeter=0;entryX=0.25;entryY=0;entryDx=0;entryDy=0;" edge="1" parent="1" source="1Sk6vO07SzEdyo9DuMJm-66" target="1Sk6vO07SzEdyo9DuMJm-45">
          <mxGeometry relative="1" as="geometry">
            <Array as="points">
              <mxPoint x="210" y="540" />
              <mxPoint x="180" y="540" />
            </Array>
          </mxGeometry>
        </mxCell>
        <mxCell id="1Sk6vO07SzEdyo9DuMJm-66" value="corpus" style="shape=note;size=20;whiteSpace=wrap;html=1;fontFamily=Courier New;" vertex="1" parent="1">
          <mxGeometry x="160" y="490" width="100" height="40" as="geometry" />
        </mxCell>
        <mxCell id="1Sk6vO07SzEdyo9DuMJm-71" style="edgeStyle=orthogonalEdgeStyle;rounded=0;orthogonalLoop=1;jettySize=auto;html=1;exitX=0.5;exitY=1;exitDx=0;exitDy=0;exitPerimeter=0;entryX=0.25;entryY=0;entryDx=0;entryDy=0;fontFamily=Courier New;" edge="1" parent="1" source="1Sk6vO07SzEdyo9DuMJm-69" target="1Sk6vO07SzEdyo9DuMJm-47">
          <mxGeometry relative="1" as="geometry">
            <Array as="points">
              <mxPoint x="400" y="540" />
              <mxPoint x="370" y="540" />
            </Array>
          </mxGeometry>
        </mxCell>
        <mxCell id="1Sk6vO07SzEdyo9DuMJm-69" value="corpus" style="shape=note;size=20;whiteSpace=wrap;html=1;fontFamily=Courier New;" vertex="1" parent="1">
          <mxGeometry x="350" y="490" width="100" height="40" as="geometry" />
        </mxCell>
        <mxCell id="1Sk6vO07SzEdyo9DuMJm-75" value="&lt;div align=&quot;left&quot; style=&quot;line-height: 100%; font-size: 10px;&quot;&gt;&lt;font style=&quot;font-size: 10px;&quot;&gt;k: &amp;lt;term&amp;gt;&lt;br&gt;v: {k: &amp;lt;category&amp;gt;&lt;br&gt;&amp;nbsp;&amp;nbsp;&amp;nbsp; v: 1}&lt;br&gt;&lt;/font&gt;&lt;/div&gt;" style="text;html=1;align=left;verticalAlign=middle;resizable=0;points=[];autosize=1;strokeColor=none;fillColor=none;fontFamily=Courier New;" vertex="1" parent="1">
          <mxGeometry x="50" y="630" width="130" height="40" as="geometry" />
        </mxCell>
        <mxCell id="1Sk6vO07SzEdyo9DuMJm-76" value="&lt;div align=&quot;left&quot; style=&quot;line-height: 100%; font-size: 10px;&quot;&gt;&lt;font style=&quot;font-size: 10px;&quot;&gt;k: &amp;lt;term&amp;gt;&lt;br&gt;v: {k: &amp;lt;category&amp;gt;&lt;br&gt;&amp;nbsp;&amp;nbsp;&amp;nbsp; v: 1}&lt;br&gt;&lt;/font&gt;&lt;/div&gt;" style="text;html=1;align=left;verticalAlign=middle;resizable=0;points=[];autosize=1;strokeColor=none;fillColor=none;fontFamily=Courier New;" vertex="1" parent="1">
          <mxGeometry x="180" y="630" width="130" height="40" as="geometry" />
        </mxCell>
        <mxCell id="1Sk6vO07SzEdyo9DuMJm-77" value="&lt;div align=&quot;left&quot; style=&quot;line-height: 100%; font-size: 10px;&quot;&gt;&lt;font style=&quot;font-size: 10px;&quot;&gt;k: &amp;lt;term&amp;gt;&lt;br&gt;v: {k: &amp;lt;category&amp;gt;&lt;br&gt;&amp;nbsp;&amp;nbsp;&amp;nbsp; v: 1}&lt;br&gt;&lt;/font&gt;&lt;/div&gt;" style="text;html=1;align=left;verticalAlign=middle;resizable=0;points=[];autosize=1;strokeColor=none;fillColor=none;fontFamily=Courier New;" vertex="1" parent="1">
          <mxGeometry x="370" y="630" width="130" height="40" as="geometry" />
        </mxCell>
        <mxCell id="1Sk6vO07SzEdyo9DuMJm-79" style="edgeStyle=orthogonalEdgeStyle;rounded=0;orthogonalLoop=1;jettySize=auto;html=1;exitX=0;exitY=0;exitDx=100;exitDy=40;exitPerimeter=0;entryX=0.75;entryY=0;entryDx=0;entryDy=0;" edge="1" parent="1" source="1Sk6vO07SzEdyo9DuMJm-78" target="1Sk6vO07SzEdyo9DuMJm-43">
          <mxGeometry relative="1" as="geometry">
            <Array as="points">
              <mxPoint x="140" y="460" />
              <mxPoint x="140" y="540" />
              <mxPoint x="110" y="540" />
            </Array>
          </mxGeometry>
        </mxCell>
        <mxCell id="1Sk6vO07SzEdyo9DuMJm-80" style="edgeStyle=orthogonalEdgeStyle;rounded=0;orthogonalLoop=1;jettySize=auto;html=1;exitX=0;exitY=0;exitDx=100;exitDy=40;exitPerimeter=0;entryX=0.75;entryY=0;entryDx=0;entryDy=0;" edge="1" parent="1" source="1Sk6vO07SzEdyo9DuMJm-78" target="1Sk6vO07SzEdyo9DuMJm-45">
          <mxGeometry relative="1" as="geometry">
            <Array as="points">
              <mxPoint x="270" y="460" />
              <mxPoint x="270" y="540" />
              <mxPoint x="240" y="540" />
            </Array>
          </mxGeometry>
        </mxCell>
        <mxCell id="1Sk6vO07SzEdyo9DuMJm-81" style="edgeStyle=orthogonalEdgeStyle;rounded=0;orthogonalLoop=1;jettySize=auto;html=1;exitX=0;exitY=0;exitDx=100;exitDy=40;exitPerimeter=0;entryX=0.75;entryY=0;entryDx=0;entryDy=0;" edge="1" parent="1" source="1Sk6vO07SzEdyo9DuMJm-78" target="1Sk6vO07SzEdyo9DuMJm-47">
          <mxGeometry relative="1" as="geometry">
            <Array as="points">
              <mxPoint x="460" y="460" />
              <mxPoint x="460" y="540" />
              <mxPoint x="430" y="540" />
            </Array>
          </mxGeometry>
        </mxCell>
        <mxCell id="1Sk6vO07SzEdyo9DuMJm-78" value="stopwords" style="shape=note;size=20;whiteSpace=wrap;html=1;fontFamily=Courier New;" vertex="1" parent="1">
          <mxGeometry x="30" y="420" width="100" height="60" as="geometry" />
        </mxCell>
        <mxCell id="1Sk6vO07SzEdyo9DuMJm-82" value="reducer: select top 75" style="rounded=0;whiteSpace=wrap;html=1;fontFamily=Courier New;" vertex="1" parent="1">
          <mxGeometry x="20" y="860" width="120" height="60" as="geometry" />
        </mxCell>
        <mxCell id="1Sk6vO07SzEdyo9DuMJm-87" value="&lt;div align=&quot;left&quot; style=&quot;line-height: 100%; font-size: 10px;&quot;&gt;&lt;font style=&quot;font-size: 10px;&quot;&gt;k: &amp;lt;category&amp;gt;&lt;br&gt;v: {k: &amp;lt;term&amp;gt;&lt;br&gt;&amp;nbsp;&amp;nbsp;&amp;nbsp; v: chi&lt;sup&gt;2&lt;/sup&gt; value}&lt;br&gt;&lt;/font&gt;&lt;/div&gt;" style="text;html=1;align=left;verticalAlign=middle;resizable=0;points=[];autosize=1;strokeColor=none;fillColor=none;fontFamily=Courier New;" vertex="1" parent="1">
          <mxGeometry x="180" y="765" width="130" height="50" as="geometry" />
        </mxCell>
        <mxCell id="1Sk6vO07SzEdyo9DuMJm-88" value="&lt;b&gt;&lt;font style=&quot;font-size: 20px;&quot; face=&quot;Courier New&quot;&gt;1&lt;sup&gt;st&lt;/sup&gt; job - count categories&lt;br&gt;&lt;/font&gt;&lt;/b&gt;" style="text;html=1;align=center;verticalAlign=middle;whiteSpace=wrap;rounded=0;rotation=270;" vertex="1" parent="1">
          <mxGeometry x="333.75" y="211.25" width="332.5" height="30" as="geometry" />
        </mxCell>
        <mxCell id="1Sk6vO07SzEdyo9DuMJm-89" value="&lt;b&gt;&lt;font style=&quot;font-size: 20px;&quot; face=&quot;Courier New&quot;&gt;2&lt;sup&gt;nd&lt;/sup&gt; job - calculate chi&lt;sup&gt;2&lt;/sup&gt; value&lt;br&gt;&lt;/font&gt;&lt;/b&gt;" style="text;html=1;align=center;verticalAlign=middle;whiteSpace=wrap;rounded=0;rotation=270;" vertex="1" parent="1">
          <mxGeometry x="385" y="655" width="272.5" height="60" as="geometry" />
        </mxCell>
        <mxCell id="1Sk6vO07SzEdyo9DuMJm-103" style="edgeStyle=orthogonalEdgeStyle;rounded=0;orthogonalLoop=1;jettySize=auto;html=1;exitX=0.25;exitY=1;exitDx=0;exitDy=0;endArrow=none;endFill=0;" edge="1" parent="1" source="1Sk6vO07SzEdyo9DuMJm-90">
          <mxGeometry relative="1" as="geometry">
            <mxPoint x="179.78947368421063" y="390" as="targetPoint" />
          </mxGeometry>
        </mxCell>
        <mxCell id="1Sk6vO07SzEdyo9DuMJm-90" value="combinder: count category" style="rounded=0;whiteSpace=wrap;html=1;fontFamily=Courier New;" vertex="1" parent="1">
          <mxGeometry x="150" y="300" width="120" height="60" as="geometry" />
        </mxCell>
        <mxCell id="1Sk6vO07SzEdyo9DuMJm-101" style="edgeStyle=orthogonalEdgeStyle;rounded=0;orthogonalLoop=1;jettySize=auto;html=1;exitX=0.25;exitY=1;exitDx=0;exitDy=0;entryX=0.75;entryY=0;entryDx=0;entryDy=0;" edge="1" parent="1" source="1Sk6vO07SzEdyo9DuMJm-91" target="1Sk6vO07SzEdyo9DuMJm-97">
          <mxGeometry relative="1" as="geometry">
            <Array as="points">
              <mxPoint x="370" y="390" />
              <mxPoint x="240" y="390" />
              <mxPoint x="240" y="420" />
              <mxPoint x="490" y="420" />
              <mxPoint x="490" y="690" />
              <mxPoint x="430" y="690" />
            </Array>
          </mxGeometry>
        </mxCell>
        <mxCell id="1Sk6vO07SzEdyo9DuMJm-91" value="combinder: count category" style="rounded=0;whiteSpace=wrap;html=1;fontFamily=Courier New;" vertex="1" parent="1">
          <mxGeometry x="340" y="300" width="120" height="60" as="geometry" />
        </mxCell>
        <mxCell id="1Sk6vO07SzEdyo9DuMJm-94" value="" style="endArrow=none;dashed=1;html=1;dashPattern=1 3;strokeWidth=5.5;rounded=0;jumpSize=6;fontFamily=Courier New;" edge="1" parent="1">
          <mxGeometry width="50" height="50" relative="1" as="geometry">
            <mxPoint x="280" y="329.69" as="sourcePoint" />
            <mxPoint x="330" y="329.9" as="targetPoint" />
          </mxGeometry>
        </mxCell>
        <mxCell id="1Sk6vO07SzEdyo9DuMJm-105" style="edgeStyle=orthogonalEdgeStyle;rounded=0;orthogonalLoop=1;jettySize=auto;html=1;exitX=0.25;exitY=1;exitDx=0;exitDy=0;entryX=0.5;entryY=0;entryDx=0;entryDy=0;" edge="1" parent="1" source="1Sk6vO07SzEdyo9DuMJm-96" target="1Sk6vO07SzEdyo9DuMJm-112">
          <mxGeometry relative="1" as="geometry">
            <mxPoint x="240" y="850" as="targetPoint" />
            <Array as="points">
              <mxPoint x="180" y="810" />
              <mxPoint x="240" y="810" />
              <mxPoint x="240" y="830" />
              <mxPoint x="210" y="830" />
            </Array>
          </mxGeometry>
        </mxCell>
        <mxCell id="1Sk6vO07SzEdyo9DuMJm-96" value="reducer: calculate chi-squared" style="rounded=0;whiteSpace=wrap;html=1;fontFamily=Courier New;" vertex="1" parent="1">
          <mxGeometry x="150" y="710" width="120" height="60" as="geometry" />
        </mxCell>
        <mxCell id="1Sk6vO07SzEdyo9DuMJm-106" style="edgeStyle=orthogonalEdgeStyle;rounded=0;orthogonalLoop=1;jettySize=auto;html=1;exitX=0.25;exitY=1;exitDx=0;exitDy=0;entryX=0.5;entryY=0;entryDx=0;entryDy=0;" edge="1" parent="1" source="1Sk6vO07SzEdyo9DuMJm-97" target="1Sk6vO07SzEdyo9DuMJm-82">
          <mxGeometry relative="1" as="geometry">
            <Array as="points">
              <mxPoint x="370" y="810" />
              <mxPoint x="240" y="810" />
              <mxPoint x="240" y="830" />
              <mxPoint x="80" y="830" />
            </Array>
          </mxGeometry>
        </mxCell>
        <mxCell id="1Sk6vO07SzEdyo9DuMJm-97" value="reducer: calculate chi-squared" style="rounded=0;whiteSpace=wrap;html=1;fontFamily=Courier New;" vertex="1" parent="1">
          <mxGeometry x="340" y="710" width="120" height="60" as="geometry" />
        </mxCell>
        <mxCell id="1Sk6vO07SzEdyo9DuMJm-104" value="" style="endArrow=classic;html=1;rounded=0;entryX=0.75;entryY=0;entryDx=0;entryDy=0;" edge="1" parent="1" target="1Sk6vO07SzEdyo9DuMJm-96">
          <mxGeometry width="50" height="50" relative="1" as="geometry">
            <mxPoint x="240" y="690" as="sourcePoint" />
            <mxPoint x="460" y="560" as="targetPoint" />
          </mxGeometry>
        </mxCell>
        <mxCell id="1Sk6vO07SzEdyo9DuMJm-107" value="" style="endArrow=none;dashed=1;html=1;dashPattern=1 3;strokeWidth=5.5;rounded=0;jumpSize=6;fontFamily=Courier New;" edge="1" parent="1">
          <mxGeometry width="50" height="50" relative="1" as="geometry">
            <mxPoint x="280" y="739.41" as="sourcePoint" />
            <mxPoint x="330" y="739.62" as="targetPoint" />
          </mxGeometry>
        </mxCell>
        <mxCell id="1Sk6vO07SzEdyo9DuMJm-108" value="&lt;div align=&quot;left&quot; style=&quot;line-height: 100%; font-size: 10px;&quot;&gt;&lt;font style=&quot;font-size: 10px;&quot;&gt;k: &amp;lt;category&amp;gt;&lt;br&gt;v: {k: &amp;lt;term&amp;gt;&lt;br&gt;&amp;nbsp;&amp;nbsp;&amp;nbsp; v: chi&lt;sup&gt;2&lt;/sup&gt; value}&lt;br&gt;&lt;/font&gt;&lt;/div&gt;" style="text;html=1;align=left;verticalAlign=middle;resizable=0;points=[];autosize=1;strokeColor=none;fillColor=none;fontFamily=Courier New;" vertex="1" parent="1">
          <mxGeometry x="50" y="765" width="130" height="50" as="geometry" />
        </mxCell>
        <mxCell id="1Sk6vO07SzEdyo9DuMJm-109" value="&lt;div align=&quot;left&quot; style=&quot;line-height: 100%; font-size: 10px;&quot;&gt;&lt;font style=&quot;font-size: 10px;&quot;&gt;k: &amp;lt;category&amp;gt;&lt;br&gt;v: {k: &amp;lt;term&amp;gt;&lt;br&gt;&amp;nbsp;&amp;nbsp;&amp;nbsp; v: chi&lt;sup&gt;2&lt;/sup&gt; value}&lt;br&gt;&lt;/font&gt;&lt;/div&gt;" style="text;html=1;align=left;verticalAlign=middle;resizable=0;points=[];autosize=1;strokeColor=none;fillColor=none;fontFamily=Courier New;" vertex="1" parent="1">
          <mxGeometry x="370" y="765" width="130" height="50" as="geometry" />
        </mxCell>
        <mxCell id="1Sk6vO07SzEdyo9DuMJm-110" value="&lt;div style=&quot;line-height: 100%; font-size: 10px;&quot;&gt;&lt;font style=&quot;font-size: 10px;&quot;&gt;k: &amp;lt;category&amp;gt;&lt;br&gt;v: sum&lt;br&gt;&lt;/font&gt;&lt;/div&gt;" style="text;html=1;align=left;verticalAlign=middle;resizable=0;points=[];autosize=1;strokeColor=none;fillColor=none;fontFamily=Courier New;" vertex="1" parent="1">
          <mxGeometry x="50" y="360" width="100" height="30" as="geometry" />
        </mxCell>
        <mxCell id="1Sk6vO07SzEdyo9DuMJm-111" value="&lt;div style=&quot;line-height: 100%; font-size: 10px;&quot;&gt;&lt;font style=&quot;font-size: 10px;&quot;&gt;k: &amp;lt;category&amp;gt;&lt;br&gt;v: sum&lt;br&gt;&lt;/font&gt;&lt;/div&gt;" style="text;html=1;align=left;verticalAlign=middle;resizable=0;points=[];autosize=1;strokeColor=none;fillColor=none;fontFamily=Courier New;" vertex="1" parent="1">
          <mxGeometry x="370" y="360" width="100" height="30" as="geometry" />
        </mxCell>
        <mxCell id="1Sk6vO07SzEdyo9DuMJm-112" value="reducer: select top 75" style="rounded=0;whiteSpace=wrap;html=1;fontFamily=Courier New;" vertex="1" parent="1">
          <mxGeometry x="150" y="860" width="120" height="60" as="geometry" />
        </mxCell>
        <mxCell id="1Sk6vO07SzEdyo9DuMJm-121" style="edgeStyle=orthogonalEdgeStyle;rounded=0;orthogonalLoop=1;jettySize=auto;html=1;exitX=0.25;exitY=1;exitDx=0;exitDy=0;" edge="1" parent="1" source="1Sk6vO07SzEdyo9DuMJm-113">
          <mxGeometry relative="1" as="geometry">
            <mxPoint x="240" y="1000" as="targetPoint" />
          </mxGeometry>
        </mxCell>
        <mxCell id="1Sk6vO07SzEdyo9DuMJm-113" value="reducer: select top 75" style="rounded=0;whiteSpace=wrap;html=1;fontFamily=Courier New;" vertex="1" parent="1">
          <mxGeometry x="340" y="860" width="120" height="60" as="geometry" />
        </mxCell>
        <mxCell id="1Sk6vO07SzEdyo9DuMJm-115" value="" style="endArrow=none;dashed=1;html=1;dashPattern=1 3;strokeWidth=5.5;rounded=0;jumpSize=6;fontFamily=Courier New;" edge="1" parent="1">
          <mxGeometry width="50" height="50" relative="1" as="geometry">
            <mxPoint x="280" y="889.6999999999999" as="sourcePoint" />
            <mxPoint x="330" y="889.91" as="targetPoint" />
          </mxGeometry>
        </mxCell>
        <mxCell id="1Sk6vO07SzEdyo9DuMJm-116" value="&lt;div align=&quot;left&quot; style=&quot;line-height: 100%; font-size: 10px;&quot;&gt;&lt;font style=&quot;font-size: 10px;&quot;&gt;k: &amp;lt;category&amp;gt;&lt;br&gt;v: {k: &amp;lt;term&amp;gt;&lt;br&gt;&amp;nbsp;&amp;nbsp;&amp;nbsp; v: chi&lt;sup&gt;2&lt;/sup&gt; value}&lt;br&gt;&lt;/font&gt;&lt;/div&gt;" style="text;html=1;align=left;verticalAlign=middle;resizable=0;points=[];autosize=1;strokeColor=none;fillColor=none;fontFamily=Courier New;" vertex="1" parent="1">
          <mxGeometry x="50" y="915" width="130" height="50" as="geometry" />
        </mxCell>
        <mxCell id="1Sk6vO07SzEdyo9DuMJm-118" value="result" style="shape=note;size=20;whiteSpace=wrap;html=1;fontFamily=Courier New;" vertex="1" parent="1">
          <mxGeometry x="190" y="1000" width="100" height="40" as="geometry" />
        </mxCell>
        <mxCell id="1Sk6vO07SzEdyo9DuMJm-119" style="edgeStyle=orthogonalEdgeStyle;rounded=0;orthogonalLoop=1;jettySize=auto;html=1;exitX=0.25;exitY=1;exitDx=0;exitDy=0;entryX=0.5;entryY=0;entryDx=0;entryDy=0;entryPerimeter=0;" edge="1" parent="1" source="1Sk6vO07SzEdyo9DuMJm-82" target="1Sk6vO07SzEdyo9DuMJm-118">
          <mxGeometry relative="1" as="geometry" />
        </mxCell>
        <mxCell id="1Sk6vO07SzEdyo9DuMJm-120" style="edgeStyle=orthogonalEdgeStyle;rounded=0;orthogonalLoop=1;jettySize=auto;html=1;exitX=0.25;exitY=1;exitDx=0;exitDy=0;entryX=0.5;entryY=0;entryDx=0;entryDy=0;entryPerimeter=0;" edge="1" parent="1" source="1Sk6vO07SzEdyo9DuMJm-112" target="1Sk6vO07SzEdyo9DuMJm-118">
          <mxGeometry relative="1" as="geometry" />
        </mxCell>
        <mxCell id="1Sk6vO07SzEdyo9DuMJm-122" value="&lt;div align=&quot;left&quot; style=&quot;line-height: 100%; font-size: 10px;&quot;&gt;&lt;font style=&quot;font-size: 10px;&quot;&gt;k: &amp;lt;category&amp;gt;&lt;br&gt;v: {k: &amp;lt;term&amp;gt;&lt;br&gt;&amp;nbsp;&amp;nbsp;&amp;nbsp; v: chi&lt;sup&gt;2&lt;/sup&gt; value}&lt;br&gt;&lt;/font&gt;&lt;/div&gt;" style="text;html=1;align=left;verticalAlign=middle;resizable=0;points=[];autosize=1;strokeColor=none;fillColor=none;fontFamily=Courier New;" vertex="1" parent="1">
          <mxGeometry x="180" y="915" width="130" height="50" as="geometry" />
        </mxCell>
        <mxCell id="1Sk6vO07SzEdyo9DuMJm-123" value="&lt;div align=&quot;left&quot; style=&quot;line-height: 100%; font-size: 10px;&quot;&gt;&lt;font style=&quot;font-size: 10px;&quot;&gt;k: &amp;lt;category&amp;gt;&lt;br&gt;v: {k: &amp;lt;term&amp;gt;&lt;br&gt;&amp;nbsp;&amp;nbsp;&amp;nbsp; v: chi&lt;sup&gt;2&lt;/sup&gt; value}&lt;br&gt;&lt;/font&gt;&lt;/div&gt;" style="text;html=1;align=left;verticalAlign=middle;resizable=0;points=[];autosize=1;strokeColor=none;fillColor=none;fontFamily=Courier New;" vertex="1" parent="1">
          <mxGeometry x="370" y="915" width="130" height="50" as="geometry" />
        </mxCell>
        <mxCell id="1Sk6vO07SzEdyo9DuMJm-124" value="&lt;b&gt;&lt;font face=&quot;Courier New&quot; style=&quot;font-size: 20px;&quot;&gt;3rd job - select top 75&lt;br&gt;&lt;/font&gt;&lt;/b&gt;" style="text;html=1;align=center;verticalAlign=middle;whiteSpace=wrap;rounded=0;rotation=270;" vertex="1" parent="1">
          <mxGeometry x="465.32" y="867.2" width="133.75" height="81.87" as="geometry" />
        </mxCell>
        <mxCell id="1Sk6vO07SzEdyo9DuMJm-125" value="x24" style="text;html=1;align=center;verticalAlign=middle;whiteSpace=wrap;rounded=0;fontFamily=Courier New;" vertex="1" parent="1">
          <mxGeometry x="270" y="860" width="70" height="30" as="geometry" />
        </mxCell>
        <mxCell id="1Sk6vO07SzEdyo9DuMJm-126" value="x1000" style="text;html=1;align=center;verticalAlign=middle;whiteSpace=wrap;rounded=0;fontFamily=Courier New;" vertex="1" parent="1">
          <mxGeometry x="270" y="710" width="70" height="30" as="geometry" />
        </mxCell>
        <mxCell id="1Sk6vO07SzEdyo9DuMJm-127" value="x24" style="text;html=1;align=center;verticalAlign=middle;whiteSpace=wrap;rounded=0;fontFamily=Courier New;" vertex="1" parent="1">
          <mxGeometry x="270" y="300" width="70" height="30" as="geometry" />
        </mxCell>
      </root>
    </mxGraphModel>
  </diagram>
</mxfile>
